<svg width="51" height="51" viewBox="0 0 51 51" fill="none" xmlns="http://www.w3.org/2000/svg">
<circle cx="25.6267" cy="25.5056" r="24.3036" fill="white" stroke="#6F7DFF"/>
<path opacity="0.4" d="M15.8646 31.8933C15.4376 31.8933 15.0834 31.5391 15.0834 31.112V25.1745C15.0313 22.3516 16.0834 19.685 18.0417 17.685C20.0001 15.6954 22.6251 14.6016 25.448 14.6016C31.2188 14.6016 35.9167 19.2995 35.9167 25.0704V31.0079C35.9167 31.435 35.5626 31.7891 35.1355 31.7891C34.7084 31.7891 34.3542 31.435 34.3542 31.0079V25.0704C34.3542 20.1641 30.3646 16.1641 25.448 16.1641C23.0417 16.1641 20.8126 17.0912 19.1563 18.7787C17.4896 20.4766 16.6042 22.737 16.6459 25.1537V31.1016C16.6459 31.5391 16.3021 31.8933 15.8646 31.8933Z" fill="#6F7DFF"/>
<path d="M19.1875 25.4349H19.0521C16.8646 25.4349 15.0834 27.2162 15.0834 29.4037V31.362C15.0834 33.5495 16.8646 35.3308 19.0521 35.3308H19.1875C21.375 35.3308 23.1563 33.5495 23.1563 31.362V29.4037C23.1563 27.2162 21.375 25.4349 19.1875 25.4349ZM31.948 25.4349H31.8125C29.625 25.4349 27.8438 27.2162 27.8438 29.4037V31.362C27.8438 33.5495 29.625 35.3308 31.8125 35.3308H31.948C34.1355 35.3308 35.9167 33.5495 35.9167 31.362V29.4037C35.9167 27.2162 34.1355 25.4349 31.948 25.4349Z" fill="#6F7DFF"/>
</svg>
