<svg width="51" height="51" viewBox="0 0 51 51" fill="none" xmlns="http://www.w3.org/2000/svg">
<circle cx="25.6267" cy="25.384" r="24.3036" fill="white" stroke="#6F7DFF"/>
<path opacity="0.4" d="M23.9375 17.4975V30.2891C23.9375 31.1433 23.3959 31.8621 22.6355 32.1329C22.3833 32.2311 22.1126 32.2726 21.8426 32.2546C21.5726 32.2366 21.3099 32.1595 21.073 32.0287C20.4375 31.7058 20 31.0496 20 30.2891V22.4246H19.0209C17.9774 22.4218 16.9775 22.0061 16.2397 21.2683C15.5018 20.5304 15.0861 19.5305 15.0834 18.4871C15.0834 17.4037 15.5209 16.4246 16.2396 15.7058C16.9584 14.9871 17.9375 14.5496 19.0209 14.5496H20.9896C22.6042 14.5496 23.9375 15.8829 23.9375 17.4975Z" fill="#6F7DFF"/>
<path d="M19.0208 20.2454C18.052 20.2454 17.2604 19.4537 17.2604 18.4745C17.2604 17.4954 18.052 16.7141 19.0208 16.7141C19.4479 16.7141 19.802 17.0683 19.802 17.4954C19.802 17.9224 19.4479 18.2766 19.0208 18.2766C18.9683 18.2766 18.918 18.2975 18.8808 18.3346C18.8437 18.3717 18.8229 18.422 18.8229 18.4745C18.8229 18.5787 18.9166 18.6829 19.0208 18.6829C19.4479 18.6829 19.802 19.037 19.802 19.4641C19.802 19.8912 19.4479 20.2454 19.0208 20.2454Z" fill="#6F7DFF"/>
<path opacity="0.4" d="M35.9167 18.4871C35.9167 20.6537 34.1458 22.4246 31.9792 22.4246H31V30.2891C31 31.0496 30.5625 31.7058 29.9271 32.0287C29.6902 32.1595 29.4274 32.2366 29.1574 32.2546C28.8874 32.2726 28.6168 32.2311 28.3646 32.1329C27.6042 31.8621 27.0625 31.1433 27.0625 30.2891V17.4975C27.0652 16.7165 27.3767 15.9683 27.929 15.416C28.4812 14.8638 29.2294 14.5523 30.0104 14.5496H31.9792C33.0625 14.5496 34.0417 14.9871 34.7604 15.7058C35.4792 16.4246 35.9167 17.4037 35.9167 18.4871Z" fill="#6F7DFF"/>
<path d="M31.9791 20.2454C31.552 20.2454 31.1979 19.8912 31.1979 19.4641C31.1979 19.037 31.552 18.6829 31.9791 18.6829C32.0937 18.6829 32.177 18.5891 32.177 18.4745C32.177 18.422 32.1562 18.3717 32.1191 18.3346C32.082 18.2975 32.0316 18.2766 31.9791 18.2766C31.552 18.2766 31.1979 17.9224 31.1979 17.4954C31.1979 17.0683 31.552 16.7141 31.9791 16.7141C32.4474 16.7141 32.8965 16.9001 33.2276 17.2313C33.5587 17.5624 33.7448 18.0115 33.7448 18.4797C33.7448 18.948 33.5587 19.3971 33.2276 19.7282C32.8965 20.0593 32.4474 20.2454 31.9791 20.2454ZM22.6354 32.1339V35.3839C22.6354 35.811 22.2812 36.1652 21.8541 36.1652C21.427 36.1652 21.0729 35.811 21.0729 35.3839V32.0297C21.3098 32.1606 21.5725 32.2377 21.8425 32.2557C22.1125 32.2737 22.3832 32.2321 22.6354 32.1339ZM29.927 32.0297V35.3839C29.927 35.811 29.5729 36.1652 29.1458 36.1652C28.7187 36.1652 28.3645 35.811 28.3645 35.3839V32.1339C28.6167 32.2321 28.8874 32.2737 29.1574 32.2557C29.4274 32.2377 29.6902 32.1606 29.927 32.0297Z" fill="#6F7DFF"/>
</svg>
