<svg width="50" height="50" viewBox="0 0 50 50" fill="none" xmlns="http://www.w3.org/2000/svg">
<circle cx="24.8589" cy="24.9536" r="24.3036" fill="white" stroke="#6F7DFF"/>
<path opacity="0.4" d="M35.8334 19.927V29.0054C35.8334 32.9487 33.4825 35.2995 29.5392 35.2995H20.4609C16.5175 35.2995 14.1667 32.9487 14.1667 29.0054V19.927C14.1667 19.3745 14.21 18.8437 14.3075 18.3562C14.86 15.377 17.0592 13.6437 20.4175 13.6329H29.5825C32.9409 13.6437 35.14 15.377 35.6925 18.3562C35.79 18.8437 35.8334 19.3745 35.8334 19.927Z" fill="#6F7DFF"/>
<path d="M35.8334 19.927V19.9812H14.1667V19.927C14.1667 19.3745 14.21 18.8437 14.3075 18.3562H20.4175V13.6329H22.0425V18.3562H27.9575V13.6329H29.5825V18.3562H35.6925C35.79 18.8437 35.8334 19.3745 35.8334 19.927ZM27.6444 25.2462L25.3911 23.9462C24.5569 23.4695 23.7553 23.4045 23.1269 23.762C22.4986 24.1195 22.1519 24.8562 22.1519 25.8095V28.4095C22.1519 29.3629 22.4986 30.0995 23.1269 30.457C23.3978 30.6087 23.7011 30.6845 24.0153 30.6845C24.4486 30.6845 24.9144 30.5437 25.3911 30.2729L27.6444 28.9729C28.4786 28.4962 28.9336 27.8245 28.9336 27.0987C28.9336 26.3729 28.4678 25.7337 27.6444 25.2462Z" fill="#6F7DFF"/>
</svg>
