<svg width="50" height="50" viewBox="0 0 50 50" fill="none" xmlns="http://www.w3.org/2000/svg">
<circle cx="24.8589" cy="24.8323" r="24.3036" fill="white" stroke="#6F7DFF"/>
<path opacity="0.4" d="M24.5 16.9891V33.687C24.3229 33.687 24.1354 33.6557 23.9896 33.5724L23.9479 33.5516C21.9479 32.4578 18.4583 31.312 16.1979 31.0099L15.8958 30.9682C14.8958 30.8432 14.0833 29.9057 14.0833 28.9057V16.3224C14.0833 15.0828 15.0937 14.1453 16.3333 14.2495C18.5208 14.4266 21.8333 15.5307 23.6875 16.687L23.9479 16.8432C24.1041 16.937 24.3021 16.9891 24.5 16.9891Z" fill="#6F7DFF"/>
<path d="M34.9167 16.3308V28.9037C34.9167 29.9037 34.1042 30.8412 33.1042 30.9662L32.7604 31.0079C30.4896 31.3099 26.9896 32.4662 24.9896 33.5704C24.8542 33.6537 24.6875 33.6849 24.5 33.6849V16.987C24.6979 16.987 24.8959 16.9349 25.0521 16.8412L25.2292 16.7266C27.0834 15.5599 30.4063 14.4454 32.5938 14.2579H32.6563C33.8959 14.1537 34.9167 15.0808 34.9167 16.3308ZM20.0729 21.0891H17.7292C17.3021 21.0891 16.9479 20.7349 16.9479 20.3079C16.9479 19.8808 17.3021 19.5266 17.7292 19.5266H20.0729C20.5 19.5266 20.8542 19.8808 20.8542 20.3079C20.8542 20.7349 20.5 21.0891 20.0729 21.0891ZM20.8542 24.2141H17.7292C17.3021 24.2141 16.9479 23.8599 16.9479 23.4329C16.9479 23.0058 17.3021 22.6516 17.7292 22.6516H20.8542C21.2813 22.6516 21.6354 23.0058 21.6354 23.4329C21.6354 23.8599 21.2813 24.2141 20.8542 24.2141Z" fill="#6F7DFF"/>
</svg>
